<svg width="86" height="98" viewBox="0 0 86 98" fill="none" xmlns="http://www.w3.org/2000/svg">
<g opacity="0.3">
<mask id="mask0_1_11" style="mask-type:alpha" maskUnits="userSpaceOnUse" x="0" y="20" width="8" height="8">
<path d="M3.90962 27.9773C6.06885 27.9773 7.81925 26.1915 7.81925 23.9886C7.81925 21.7858 6.06885 20 3.90962 20C1.7504 20 0 21.7858 0 23.9886C0 26.1915 1.7504 27.9773 3.90962 27.9773Z" fill="url(#paint0_linear_1_11)"/>
</mask>
<g mask="url(#mask0_1_11)">
<path d="M3.90962 27.9773C6.06885 27.9773 7.81925 26.1915 7.81925 23.9886C7.81925 21.7858 6.06885 20 3.90962 20C1.7504 20 0 21.7858 0 23.9886C0 26.1915 1.7504 27.9773 3.90962 27.9773Z" fill="url(#paint1_linear_1_11)"/>
</g>
<mask id="mask1_1_11" style="mask-type:alpha" maskUnits="userSpaceOnUse" x="22" y="20" width="9" height="8">
<path d="M26.5525 27.9773C28.7117 27.9773 30.4621 26.1915 30.4621 23.9886C30.4621 21.7858 28.7117 20 26.5525 20C24.3933 20 22.6429 21.7858 22.6429 23.9886C22.6429 26.1915 24.3933 27.9773 26.5525 27.9773Z" fill="url(#paint2_linear_1_11)"/>
</mask>
<g mask="url(#mask1_1_11)">
<path d="M26.5529 27.9773C28.7121 27.9773 30.4625 26.1915 30.4625 23.9886C30.4625 21.7858 28.7121 20 26.5529 20C24.3937 20 22.6432 21.7858 22.6432 23.9886C22.6432 26.1915 24.3937 27.9773 26.5529 27.9773Z" fill="url(#paint3_linear_1_11)"/>
</g>
<mask id="mask2_1_11" style="mask-type:alpha" maskUnits="userSpaceOnUse" x="45" y="20" width="9" height="8">
<path d="M49.1953 27.9773C51.3546 27.9773 53.105 26.1915 53.105 23.9886C53.105 21.7858 51.3546 20 49.1953 20C47.0361 20 45.2857 21.7858 45.2857 23.9886C45.2857 26.1915 47.0361 27.9773 49.1953 27.9773Z" fill="url(#paint4_linear_1_11)"/>
</mask>
<g mask="url(#mask2_1_11)">
<path d="M49.196 27.9773C51.3552 27.9773 53.1056 26.1915 53.1056 23.9886C53.1056 21.7858 51.3552 20 49.196 20C47.0368 20 45.2864 21.7858 45.2864 23.9886C45.2864 26.1915 47.0368 27.9773 49.196 27.9773Z" fill="url(#paint5_linear_1_11)"/>
</g>
<mask id="mask3_1_11" style="mask-type:alpha" maskUnits="userSpaceOnUse" x="67" y="20" width="9" height="8">
<path d="M71.8382 27.9773C73.9974 27.9773 75.7478 26.1915 75.7478 23.9886C75.7478 21.7858 73.9974 20 71.8382 20C69.6789 20 67.9285 21.7858 67.9285 23.9886C67.9285 26.1915 69.6789 27.9773 71.8382 27.9773Z" fill="url(#paint6_linear_1_11)"/>
</mask>
<g mask="url(#mask3_1_11)">
<path d="M71.8388 27.9773C73.998 27.9773 75.7484 26.1915 75.7484 23.9886C75.7484 21.7858 73.998 20 71.8388 20C69.6795 20 67.9291 21.7858 67.9291 23.9886C67.9291 26.1915 69.6795 27.9773 71.8388 27.9773Z" fill="url(#paint7_linear_1_11)"/>
</g>
<mask id="mask4_1_11" style="mask-type:alpha" maskUnits="userSpaceOnUse" x="0" y="40" width="8" height="9">
<path d="M3.90962 48.0037C6.06885 48.0037 7.81925 46.2179 7.81925 44.015C7.81925 41.8122 6.06885 40.0264 3.90962 40.0264C1.7504 40.0264 0 41.8122 0 44.015C0 46.2179 1.7504 48.0037 3.90962 48.0037Z" fill="url(#paint8_linear_1_11)"/>
</mask>
<g mask="url(#mask4_1_11)">
<path d="M3.90962 48.0037C6.06885 48.0037 7.81925 46.218 7.81925 44.0151C7.81925 41.8122 6.06885 40.0265 3.90962 40.0265C1.7504 40.0265 0 41.8122 0 44.0151C0 46.218 1.7504 48.0037 3.90962 48.0037Z" fill="url(#paint9_linear_1_11)"/>
</g>
<mask id="mask5_1_11" style="mask-type:alpha" maskUnits="userSpaceOnUse" x="22" y="40" width="9" height="9">
<path d="M26.5525 48.0038C28.7117 48.0038 30.4621 46.218 30.4621 44.0151C30.4621 41.8123 28.7117 40.0265 26.5525 40.0265C24.3933 40.0265 22.6429 41.8123 22.6429 44.0151C22.6429 46.218 24.3933 48.0038 26.5525 48.0038Z" fill="url(#paint10_linear_1_11)"/>
</mask>
<g mask="url(#mask5_1_11)">
<path d="M26.5529 48.0037C28.7121 48.0037 30.4625 46.2179 30.4625 44.0151C30.4625 41.8122 28.7121 40.0264 26.5529 40.0264C24.3937 40.0264 22.6432 41.8122 22.6432 44.0151C22.6432 46.2179 24.3937 48.0037 26.5529 48.0037Z" fill="url(#paint11_linear_1_11)"/>
</g>
<mask id="mask6_1_11" style="mask-type:alpha" maskUnits="userSpaceOnUse" x="45" y="40" width="9" height="9">
<path d="M49.1953 48.0038C51.3546 48.0038 53.105 46.218 53.105 44.0151C53.105 41.8123 51.3546 40.0265 49.1953 40.0265C47.0361 40.0265 45.2857 41.8123 45.2857 44.0151C45.2857 46.218 47.0361 48.0038 49.1953 48.0038Z" fill="url(#paint12_linear_1_11)"/>
</mask>
<g mask="url(#mask6_1_11)">
<path d="M49.196 48.0037C51.3552 48.0037 53.1056 46.2179 53.1056 44.0151C53.1056 41.8122 51.3552 40.0264 49.196 40.0264C47.0368 40.0264 45.2864 41.8122 45.2864 44.0151C45.2864 46.2179 47.0368 48.0037 49.196 48.0037Z" fill="url(#paint13_linear_1_11)"/>
</g>
<mask id="mask7_1_11" style="mask-type:alpha" maskUnits="userSpaceOnUse" x="67" y="40" width="9" height="9">
<path d="M71.8382 48.0038C73.9974 48.0038 75.7478 46.218 75.7478 44.0151C75.7478 41.8123 73.9974 40.0265 71.8382 40.0265C69.6789 40.0265 67.9285 41.8123 67.9285 44.0151C67.9285 46.218 69.6789 48.0038 71.8382 48.0038Z" fill="url(#paint14_linear_1_11)"/>
</mask>
<g mask="url(#mask7_1_11)">
<path d="M71.8388 48.0037C73.998 48.0037 75.7484 46.2179 75.7484 44.0151C75.7484 41.8122 73.998 40.0264 71.8388 40.0264C69.6795 40.0264 67.9291 41.8122 67.9291 44.0151C67.9291 46.2179 69.6795 48.0037 71.8388 48.0037Z" fill="url(#paint15_linear_1_11)"/>
</g>
<mask id="mask8_1_11" style="mask-type:alpha" maskUnits="userSpaceOnUse" x="0" y="60" width="8" height="8">
<path d="M3.90962 67.9887C6.06885 67.9887 7.81925 66.2029 7.81925 64C7.81925 61.7971 6.06885 60.0113 3.90962 60.0113C1.7504 60.0113 0 61.7971 0 64C0 66.2029 1.7504 67.9887 3.90962 67.9887Z" fill="url(#paint16_linear_1_11)"/>
</mask>
<g mask="url(#mask8_1_11)">
<path d="M3.90962 67.9888C6.06885 67.9888 7.81925 66.203 7.81925 64.0001C7.81925 61.7972 6.06885 60.0114 3.90962 60.0114C1.7504 60.0114 0 61.7972 0 64.0001C0 66.203 1.7504 67.9888 3.90962 67.9888Z" fill="url(#paint17_linear_1_11)"/>
</g>
<mask id="mask9_1_11" style="mask-type:alpha" maskUnits="userSpaceOnUse" x="22" y="60" width="9" height="8">
<path d="M26.5525 67.9889C28.7117 67.9889 30.4621 66.2032 30.4621 64.0003C30.4621 61.7974 28.7117 60.0116 26.5525 60.0116C24.3933 60.0116 22.6429 61.7974 22.6429 64.0003C22.6429 66.2032 24.3933 67.9889 26.5525 67.9889Z" fill="url(#paint18_linear_1_11)"/>
</mask>
<g mask="url(#mask9_1_11)">
<path d="M26.5529 67.9888C28.7121 67.9888 30.4625 66.203 30.4625 64.0001C30.4625 61.7972 28.7121 60.0114 26.5529 60.0114C24.3937 60.0114 22.6432 61.7972 22.6432 64.0001C22.6432 66.203 24.3937 67.9888 26.5529 67.9888Z" fill="url(#paint19_linear_1_11)"/>
</g>
<mask id="mask10_1_11" style="mask-type:alpha" maskUnits="userSpaceOnUse" x="45" y="60" width="9" height="8">
<path d="M49.1953 67.9889C51.3546 67.9889 53.105 66.2032 53.105 64.0003C53.105 61.7974 51.3546 60.0116 49.1953 60.0116C47.0361 60.0116 45.2857 61.7974 45.2857 64.0003C45.2857 66.2032 47.0361 67.9889 49.1953 67.9889Z" fill="url(#paint20_linear_1_11)"/>
</mask>
<g mask="url(#mask10_1_11)">
<path d="M49.196 67.9888C51.3552 67.9888 53.1056 66.203 53.1056 64.0001C53.1056 61.7972 51.3552 60.0114 49.196 60.0114C47.0368 60.0114 45.2864 61.7972 45.2864 64.0001C45.2864 66.203 47.0368 67.9888 49.196 67.9888Z" fill="url(#paint21_linear_1_11)"/>
</g>
<mask id="mask11_1_11" style="mask-type:alpha" maskUnits="userSpaceOnUse" x="67" y="60" width="9" height="8">
<path d="M71.8382 67.9889C73.9974 67.9889 75.7478 66.2032 75.7478 64.0003C75.7478 61.7974 73.9974 60.0116 71.8382 60.0116C69.6789 60.0116 67.9285 61.7974 67.9285 64.0003C67.9285 66.2032 69.6789 67.9889 71.8382 67.9889Z" fill="url(#paint22_linear_1_11)"/>
</mask>
<g mask="url(#mask11_1_11)">
<path d="M71.8388 67.9888C73.998 67.9888 75.7484 66.203 75.7484 64.0001C75.7484 61.7972 73.998 60.0114 71.8388 60.0114C69.6795 60.0114 67.9291 61.7972 67.9291 64.0001C67.9291 66.203 69.6795 67.9888 71.8388 67.9888Z" fill="url(#paint23_linear_1_11)"/>
</g>
<mask id="mask12_1_11" style="mask-type:alpha" maskUnits="userSpaceOnUse" x="0" y="80" width="8" height="9">
<path d="M3.90962 88.0155C6.06885 88.0155 7.81925 86.2296 7.81925 84.0268C7.81925 81.8239 6.06885 80.0381 3.90962 80.0381C1.7504 80.0381 0 81.8239 0 84.0268C0 86.2296 1.7504 88.0155 3.90962 88.0155Z" fill="url(#paint24_linear_1_11)"/>
</mask>
<g mask="url(#mask12_1_11)">
<path d="M3.90962 88.0152C6.06885 88.0152 7.81925 86.2294 7.81925 84.0265C7.81925 81.8236 6.06885 80.0379 3.90962 80.0379C1.7504 80.0379 0 81.8236 0 84.0265C0 86.2294 1.7504 88.0152 3.90962 88.0152Z" fill="url(#paint25_linear_1_11)"/>
</g>
<mask id="mask13_1_11" style="mask-type:alpha" maskUnits="userSpaceOnUse" x="22" y="80" width="9" height="9">
<path d="M26.5525 88.0155C28.7117 88.0155 30.4621 86.2296 30.4621 84.0268C30.4621 81.8239 28.7117 80.0381 26.5525 80.0381C24.3933 80.0381 22.6429 81.8239 22.6429 84.0268C22.6429 86.2296 24.3933 88.0155 26.5525 88.0155Z" fill="url(#paint26_linear_1_11)"/>
</mask>
<g mask="url(#mask13_1_11)">
<path d="M26.5529 88.0152C28.7121 88.0152 30.4625 86.2294 30.4625 84.0265C30.4625 81.8236 28.7121 80.0379 26.5529 80.0379C24.3937 80.0379 22.6432 81.8236 22.6432 84.0265C22.6432 86.2294 24.3937 88.0152 26.5529 88.0152Z" fill="url(#paint27_linear_1_11)"/>
</g>
<mask id="mask14_1_11" style="mask-type:alpha" maskUnits="userSpaceOnUse" x="45" y="80" width="9" height="9">
<path d="M49.1953 88.0155C51.3546 88.0155 53.105 86.2296 53.105 84.0268C53.105 81.8239 51.3546 80.0381 49.1953 80.0381C47.0361 80.0381 45.2857 81.8239 45.2857 84.0268C45.2857 86.2296 47.0361 88.0155 49.1953 88.0155Z" fill="url(#paint28_linear_1_11)"/>
</mask>
<g mask="url(#mask14_1_11)">
<path d="M49.196 88.0152C51.3552 88.0152 53.1056 86.2294 53.1056 84.0265C53.1056 81.8236 51.3552 80.0379 49.196 80.0379C47.0368 80.0379 45.2864 81.8236 45.2864 84.0265C45.2864 86.2294 47.0368 88.0152 49.196 88.0152Z" fill="url(#paint29_linear_1_11)"/>
</g>
<mask id="mask15_1_11" style="mask-type:alpha" maskUnits="userSpaceOnUse" x="67" y="80" width="9" height="9">
<path d="M71.8382 88.0155C73.9974 88.0155 75.7478 86.2296 75.7478 84.0268C75.7478 81.8239 73.9974 80.0381 71.8382 80.0381C69.6789 80.0381 67.9285 81.8239 67.9285 84.0268C67.9285 86.2296 69.6789 88.0155 71.8382 88.0155Z" fill="url(#paint30_linear_1_11)"/>
</mask>
<g mask="url(#mask15_1_11)">
<path d="M71.8388 88.0152C73.998 88.0152 75.7484 86.2294 75.7484 84.0265C75.7484 81.8236 73.998 80.0379 71.8388 80.0379C69.6795 80.0379 67.9291 81.8236 67.9291 84.0265C67.9291 86.2294 69.6795 88.0152 71.8388 88.0152Z" fill="url(#paint31_linear_1_11)"/>
</g>
</g>
<defs>
<linearGradient id="paint0_linear_1_11" x1="38.076" y1="112.471" x2="-17.486" y2="-25.7764" gradientUnits="userSpaceOnUse">
<stop stop-color="#FFA434"/>
<stop offset="1" stop-color="#FFA434"/>
</linearGradient>
<linearGradient id="paint1_linear_1_11" x1="38.076" y1="112.471" x2="-17.486" y2="-25.7764" gradientUnits="userSpaceOnUse">
<stop stop-color="#FFA434"/>
<stop offset="1" stop-color="#FFA434"/>
</linearGradient>
<linearGradient id="paint2_linear_1_11" x1="60.7189" y1="112.471" x2="5.15693" y2="-25.7764" gradientUnits="userSpaceOnUse">
<stop stop-color="#FFA434"/>
<stop offset="1" stop-color="#FFA434"/>
</linearGradient>
<linearGradient id="paint3_linear_1_11" x1="60.7193" y1="112.471" x2="5.1573" y2="-25.7764" gradientUnits="userSpaceOnUse">
<stop stop-color="#FFA434"/>
<stop offset="1" stop-color="#FFA434"/>
</linearGradient>
<linearGradient id="paint4_linear_1_11" x1="83.3617" y1="112.471" x2="27.7998" y2="-25.7764" gradientUnits="userSpaceOnUse">
<stop stop-color="#FFA434"/>
<stop offset="1" stop-color="#FFA434"/>
</linearGradient>
<linearGradient id="paint5_linear_1_11" x1="83.3624" y1="112.471" x2="27.8004" y2="-25.7764" gradientUnits="userSpaceOnUse">
<stop stop-color="#FFA434"/>
<stop offset="1" stop-color="#FFA434"/>
</linearGradient>
<linearGradient id="paint6_linear_1_11" x1="106.005" y1="112.471" x2="50.4426" y2="-25.7764" gradientUnits="userSpaceOnUse">
<stop stop-color="#FFA434"/>
<stop offset="1" stop-color="#FFA434"/>
</linearGradient>
<linearGradient id="paint7_linear_1_11" x1="106.005" y1="112.471" x2="50.4432" y2="-25.7764" gradientUnits="userSpaceOnUse">
<stop stop-color="#FFA434"/>
<stop offset="1" stop-color="#FFA434"/>
</linearGradient>
<linearGradient id="paint8_linear_1_11" x1="38.076" y1="132.496" x2="-17.4851" y2="-5.74992" gradientUnits="userSpaceOnUse">
<stop stop-color="#FFA434"/>
<stop offset="1" stop-color="#FFA434"/>
</linearGradient>
<linearGradient id="paint9_linear_1_11" x1="38.076" y1="132.496" x2="-17.4851" y2="-5.74986" gradientUnits="userSpaceOnUse">
<stop stop-color="#FFA434"/>
<stop offset="1" stop-color="#FFA434"/>
</linearGradient>
<linearGradient id="paint10_linear_1_11" x1="60.7189" y1="132.496" x2="5.15788" y2="-5.74987" gradientUnits="userSpaceOnUse">
<stop stop-color="#FFA434"/>
<stop offset="1" stop-color="#FFA434"/>
</linearGradient>
<linearGradient id="paint11_linear_1_11" x1="60.7193" y1="132.496" x2="5.15824" y2="-5.74994" gradientUnits="userSpaceOnUse">
<stop stop-color="#FFA434"/>
<stop offset="1" stop-color="#FFA434"/>
</linearGradient>
<linearGradient id="paint12_linear_1_11" x1="83.3617" y1="132.496" x2="27.8007" y2="-5.74987" gradientUnits="userSpaceOnUse">
<stop stop-color="#FFA434"/>
<stop offset="1" stop-color="#FFA434"/>
</linearGradient>
<linearGradient id="paint13_linear_1_11" x1="83.3624" y1="132.496" x2="27.8014" y2="-5.74994" gradientUnits="userSpaceOnUse">
<stop stop-color="#FFA434"/>
<stop offset="1" stop-color="#FFA434"/>
</linearGradient>
<linearGradient id="paint14_linear_1_11" x1="106.005" y1="132.496" x2="50.4435" y2="-5.74987" gradientUnits="userSpaceOnUse">
<stop stop-color="#FFA434"/>
<stop offset="1" stop-color="#FFA434"/>
</linearGradient>
<linearGradient id="paint15_linear_1_11" x1="106.005" y1="132.496" x2="50.4441" y2="-5.74994" gradientUnits="userSpaceOnUse">
<stop stop-color="#FFA434"/>
<stop offset="1" stop-color="#FFA434"/>
</linearGradient>
<linearGradient id="paint16_linear_1_11" x1="38.076" y1="152.482" x2="-17.486" y2="14.2349" gradientUnits="userSpaceOnUse">
<stop stop-color="#FFA434"/>
<stop offset="1" stop-color="#FFA434"/>
</linearGradient>
<linearGradient id="paint17_linear_1_11" x1="38.076" y1="152.482" x2="-17.486" y2="14.235" gradientUnits="userSpaceOnUse">
<stop stop-color="#FFA434"/>
<stop offset="1" stop-color="#FFA434"/>
</linearGradient>
<linearGradient id="paint18_linear_1_11" x1="60.7189" y1="152.482" x2="5.15693" y2="14.2352" gradientUnits="userSpaceOnUse">
<stop stop-color="#FFA434"/>
<stop offset="1" stop-color="#FFA434"/>
</linearGradient>
<linearGradient id="paint19_linear_1_11" x1="60.7193" y1="152.482" x2="5.1573" y2="14.235" gradientUnits="userSpaceOnUse">
<stop stop-color="#FFA434"/>
<stop offset="1" stop-color="#FFA434"/>
</linearGradient>
<linearGradient id="paint20_linear_1_11" x1="83.3617" y1="152.482" x2="27.7998" y2="14.2352" gradientUnits="userSpaceOnUse">
<stop stop-color="#FFA434"/>
<stop offset="1" stop-color="#FFA434"/>
</linearGradient>
<linearGradient id="paint21_linear_1_11" x1="83.3624" y1="152.482" x2="27.8004" y2="14.235" gradientUnits="userSpaceOnUse">
<stop stop-color="#FFA434"/>
<stop offset="1" stop-color="#FFA434"/>
</linearGradient>
<linearGradient id="paint22_linear_1_11" x1="106.005" y1="152.482" x2="50.4426" y2="14.2352" gradientUnits="userSpaceOnUse">
<stop stop-color="#FFA434"/>
<stop offset="1" stop-color="#FFA434"/>
</linearGradient>
<linearGradient id="paint23_linear_1_11" x1="106.005" y1="152.482" x2="50.4432" y2="14.235" gradientUnits="userSpaceOnUse">
<stop stop-color="#FFA434"/>
<stop offset="1" stop-color="#FFA434"/>
</linearGradient>
<linearGradient id="paint24_linear_1_11" x1="38.076" y1="172.509" x2="-17.486" y2="34.2617" gradientUnits="userSpaceOnUse">
<stop stop-color="#FFA434"/>
<stop offset="1" stop-color="#FFA434"/>
</linearGradient>
<linearGradient id="paint25_linear_1_11" x1="38.076" y1="172.509" x2="-17.486" y2="34.2615" gradientUnits="userSpaceOnUse">
<stop stop-color="#FFA434"/>
<stop offset="1" stop-color="#FFA434"/>
</linearGradient>
<linearGradient id="paint26_linear_1_11" x1="60.7189" y1="172.509" x2="5.15693" y2="34.2617" gradientUnits="userSpaceOnUse">
<stop stop-color="#FFA434"/>
<stop offset="1" stop-color="#FFA434"/>
</linearGradient>
<linearGradient id="paint27_linear_1_11" x1="60.7193" y1="172.509" x2="5.1573" y2="34.2614" gradientUnits="userSpaceOnUse">
<stop stop-color="#FFA434"/>
<stop offset="1" stop-color="#FFA434"/>
</linearGradient>
<linearGradient id="paint28_linear_1_11" x1="83.3617" y1="172.509" x2="27.7998" y2="34.2617" gradientUnits="userSpaceOnUse">
<stop stop-color="#FFA434"/>
<stop offset="1" stop-color="#FFA434"/>
</linearGradient>
<linearGradient id="paint29_linear_1_11" x1="83.3624" y1="172.509" x2="27.8004" y2="34.2614" gradientUnits="userSpaceOnUse">
<stop stop-color="#FFA434"/>
<stop offset="1" stop-color="#FFA434"/>
</linearGradient>
<linearGradient id="paint30_linear_1_11" x1="106.005" y1="172.509" x2="50.4426" y2="34.2617" gradientUnits="userSpaceOnUse">
<stop stop-color="#FFA434"/>
<stop offset="1" stop-color="#FFA434"/>
</linearGradient>
<linearGradient id="paint31_linear_1_11" x1="106.005" y1="172.509" x2="50.4432" y2="34.2614" gradientUnits="userSpaceOnUse">
<stop stop-color="#FFA434"/>
<stop offset="1" stop-color="#FFA434"/>
</linearGradient>
</defs>
</svg>
